# xmcd
#
# Track frame offsets: 
#        150
#        15297
#        28636
#        48450
#        66734
#        82149
#        97790
#        116105
#        129244
#        145921
#
# Disc length: 2118 seconds
#
# Revision: 0
# Processed by: cddbd v1.5.2PL0 Copyright (c) Steve Scherf et al.
# Submitted via: ExactAudioCopy v1.3
#
DISCID=8408440a
DTITLE=Brody Buster's One Man Band - Damn! I Spilled The Blues
DYEAR=2019
DGENRE=Blues
TTITLE0=This Time I Got The Blues
TTITLE1=Old Dog Blues
TTITLE2=Bad News
TTITLE3=2029
TTITLE4=The Wind
TTITLE5=The Reason
TTITLE6=Alligator Blues
TTITLE7=Like 'Em Like That
TTITLE8=The Hustle
TTITLE9=Week Long
EXTD=
EXTT0=
EXTT1=
EXTT2=
EXTT3=
EXTT4=
EXTT5=
EXTT6=
EXTT7=
EXTT8=
EXTT9=
PLAYORDER=
